<svg xmlns="http://www.w3.org/2000/svg" width="1200" height="675" viewBox="0 0 1200 675">
  <defs>
    <linearGradient id="bg" x1="0" y1="0" x2="1" y2="1">
      <stop offset="0%" stop-color="#f5f5f7"/>
      <stop offset="100%" stop-color="#e8e8ed"/>
    </linearGradient>
  </defs>
  <rect width="1200" height="675" fill="url(#bg)"/>
  <!-- Calendar grid abstraction -->
  <rect x="340" y="230" width="520" height="240" rx="16" fill="rgba(255,255,255,0.6)" stroke="rgba(0,0,0,0.06)"/>
  <!-- Header bar -->
  <rect x="340" y="230" width="520" height="40" rx="16" fill="rgba(255,255,255,0.8)"/>
  <!-- Day labels -->
  <rect x="360" y="285" width="60" height="40" rx="6" fill="rgba(0,113,227,0.08)"/>
  <rect x="430" y="285" width="60" height="40" rx="6" fill="rgba(0,113,227,0.05)"/>
  <rect x="500" y="285" width="60" height="40" rx="6" fill="rgba(0,113,227,0.12)"/>
  <rect x="570" y="285" width="60" height="40" rx="6" fill="rgba(0,113,227,0.05)"/>
  <rect x="640" y="285" width="60" height="40" rx="6" fill="rgba(0,113,227,0.08)"/>
  <rect x="710" y="285" width="60" height="40" rx="6" fill="rgba(0,113,227,0.15)"/>
  <!-- More day rows -->
  <rect x="360" y="335" width="60" height="40" rx="6" fill="rgba(0,113,227,0.06)"/>
  <rect x="430" y="335" width="60" height="40" rx="6" fill="rgba(0,113,227,0.1)"/>
  <rect x="500" y="335" width="60" height="40" rx="6" fill="rgba(0,113,227,0.04)"/>
  <rect x="570" y="335" width="60" height="40" rx="6" fill="rgba(0,113,227,0.08)"/>
  <rect x="640" y="335" width="60" height="40" rx="6" fill="rgba(0,113,227,0.12)"/>
  <rect x="710" y="335" width="60" height="40" rx="6" fill="rgba(0,113,227,0.06)"/>
  <rect x="360" y="385" width="60" height="40" rx="6" fill="rgba(0,113,227,0.08)"/>
  <rect x="430" y="385" width="60" height="40" rx="6" fill="rgba(0,113,227,0.05)"/>
  <rect x="500" y="385" width="60" height="40" rx="6" fill="rgba(0,113,227,0.06)"/>
  <rect x="570" y="385" width="60" height="40" rx="6" fill="rgba(0,113,227,0.15)"/>
  <rect x="640" y="385" width="60" height="40" rx="6" fill="rgba(0,113,227,0.08)"/>
  <rect x="710" y="385" width="60" height="40" rx="6" fill="rgba(0,113,227,0.04)"/>
</svg>
